<svg xmlns="http://www.w3.org/2000/svg" width="24" height="24" viewBox="0 0 24 24" fill="none">
                        <g clipPath="url(#clip0_513_97)">
                            <path d="M23.6401 6.16L18.84 1.36C18.36 0.88 17.64 0.88 17.16 1.36C16.68 1.84 16.68 2.56 17.16 3.04L19.92 5.8H6.00005C5.40005 5.8 4.80005 6.28 4.80005 7C4.80005 7.72 5.28005 8.2 6.00005 8.2H19.92L17.16 10.96C16.68 11.44 16.68 12.16 17.16 12.64C17.4 12.88 18.12 13.24 18.84 12.64L23.6401 7.84C24.3601 7.24 23.8801 6.28 23.6401 6.16Z" fill="#A3A3A3" />
                            <path d="M18.0001 15.8H4.08009L6.84009 13.04C7.32009 12.56 7.32009 11.84 6.84009 11.36C6.36009 10.88 5.64009 10.88 5.16009 11.36L0.360093 16.16C-0.359907 16.88 0.240093 17.72 0.360093 17.84L5.16009 22.64C5.40009 22.88 6.12009 23.24 6.84009 22.64C7.32009 22.16 7.32009 21.44 6.84009 20.96L4.08009 18.2H18.0001C18.7201 18.2 19.2001 17.72 19.2001 17C19.2001 16.28 18.7201 15.8 18.0001 15.8Z" fill="#A3A3A3" />
                        </g>
                        <defs>
                            <clipPath id="clip0_513_97">
                                <rect width="24" height="24" fill="white" />
                            </clipPath>
                        </defs>
                    </svg>