<svg width="64" height="64" viewBox="0 0 64 64" fill="none" xmlns="http://www.w3.org/2000/svg">
<rect width="64" height="64" fill="url(#paint0_linear_60_27)"/>
<path d="M51 16.5063V21.3159H45.8909V48H39.9492V34.6002C39.547 34.7212 39.1505 34.8148 38.754 34.8863C37.6438 35.0899 36.443 35.189 35.1573 35.189C34.6985 35.189 34.2057 35.1725 33.6846 35.134C33.8658 35.7943 33.9564 36.4712 33.9564 37.1646C33.9564 38.7494 33.5939 40.1032 32.8633 41.2148C32.1326 42.3264 31.0904 43.1739 29.7366 43.7462C28.4169 44.2855 26.8196 44.5551 24.9447 44.5551C22.8603 44.5551 20.8948 44.1369 19.0539 43.2894C17.2471 42.4144 15.5308 40.9286 13.8939 38.8375C12.2626 36.7408 10.6313 33.8738 9 30.2308L14.1544 28.3543C15.1287 30.7536 16.1369 32.7952 17.1791 34.4791C18.2553 36.1685 19.3825 37.4507 20.5663 38.3312C21.7841 39.2062 23.1038 39.6464 24.5256 39.6464C25.6357 39.6464 26.508 39.3768 27.1311 38.8375C27.7598 38.2982 28.0713 37.4837 28.0713 36.4052C28.0713 34.9193 27.6182 33.6537 26.7176 32.6081C26.4061 32.2339 26.0492 31.8652 25.6471 31.5075C24.5539 31.7331 23.3474 31.8652 22.0276 31.8982L21.7105 27.2426C23.9025 27.1381 25.4148 26.7859 26.2475 26.1806C27.0801 25.5367 27.4993 24.6782 27.4993 23.5942C27.4993 22.5101 27.1141 21.8222 26.3494 21.4205C25.6187 21.0132 24.7861 20.8096 23.8515 20.8096C22.6677 20.8096 21.5745 20.9802 20.5663 21.3159C19.5581 21.6241 18.5498 22.0258 17.5416 22.5321L15.8254 18.0251C16.7996 17.5574 18.0287 17.1006 19.5241 16.6604C21.0194 16.2201 22.6677 16 24.4746 16C27.3577 16 29.544 16.7099 31.0394 18.1297C32.5687 19.5439 33.3334 21.3379 33.3334 23.4951C33.3334 25.08 32.8972 26.4997 32.0306 27.7489C31.5831 28.4203 31.0111 29.0146 30.3144 29.5374C30.5239 29.7355 30.7279 29.9446 30.9374 30.1702C31.0904 30.1923 31.249 30.2143 31.4076 30.2308C32.3082 30.3298 33.2994 30.3794 34.3756 30.3794C35.9389 30.3794 37.3096 30.2638 38.4935 30.0272C38.9636 29.9336 39.4507 29.8071 39.9492 29.653V21.3159H36.46V16.5063H51Z" fill="white"/>
<defs>
<linearGradient id="paint0_linear_60_27" x1="32" y1="0" x2="32" y2="64" gradientUnits="userSpaceOnUse">
<stop stop-color="#FF4565"/>
<stop offset="1" stop-color="#D11233"/>
</linearGradient>
</defs>
</svg>
