<svg width="149" height="32" viewBox="0 0 149 32" fill="none" xmlns="http://www.w3.org/2000/svg">
<path d="M0 0H24.32C28.56 0 32 3.44 32 7.68V32H11.52C5.1584 32 0 26.8416 0 20.48V0Z" fill="url(#paint0_linear_221_7983)"/>
<path d="M27.7666 8.0864V10.8832H24.8802V26.4H21.5234V18.608C21.2962 18.6784 21.0722 18.7328 20.8482 18.7744C20.221 18.8928 19.5426 18.9504 18.8162 18.9504C18.557 18.9504 18.2786 18.9408 17.9842 18.9184C18.0866 19.3024 18.1378 19.696 18.1378 20.0992C18.1378 21.0208 17.933 21.808 17.5202 22.4544C17.1074 23.1008 16.5186 23.5936 15.7538 23.9264C15.0082 24.24 14.1058 24.3968 13.0466 24.3968C11.869 24.3968 10.7586 24.1536 9.71857 23.6608C8.69777 23.152 7.72817 22.288 6.80337 21.072C5.88177 19.8528 4.96017 18.1856 4.03857 16.0672L6.95057 14.976C7.50097 16.3712 8.07057 17.5584 8.65937 18.5376C9.26737 19.52 9.90417 20.2656 10.573 20.7776C11.261 21.2864 12.0066 21.5424 12.8098 21.5424C13.437 21.5424 13.9298 21.3856 14.2818 21.072C14.637 20.7584 14.813 20.2848 14.813 19.6576C14.813 18.7936 14.557 18.0576 14.0482 17.4496C13.8722 17.232 13.6706 17.0176 13.4434 16.8096C12.8258 16.9408 12.1442 17.0176 11.3986 17.0368L11.2194 14.3296C12.4578 14.2688 13.3122 14.064 13.7826 13.712C14.253 13.3376 14.4898 12.8384 14.4898 12.208C14.4898 11.5776 14.2722 11.1776 13.8402 10.944C13.4274 10.7072 12.957 10.5888 12.429 10.5888C11.7602 10.5888 11.1426 10.688 10.573 10.8832C10.0034 11.0624 9.43377 11.296 8.86417 11.5904L7.89457 8.9696C8.44497 8.6976 9.13937 8.432 9.98417 8.176C10.829 7.92 11.7602 7.792 12.781 7.792C14.4098 7.792 15.645 8.2048 16.4898 9.0304C17.3538 9.8528 17.7858 10.896 17.7858 12.1504C17.7858 13.072 17.5394 13.8976 17.0498 14.624C16.797 15.0144 16.4738 15.36 16.0802 15.664C16.1986 15.7792 16.3138 15.9008 16.4322 16.032C16.5186 16.0448 16.6082 16.0576 16.6978 16.0672C17.2066 16.1248 17.7666 16.1536 18.3746 16.1536C19.2578 16.1536 20.0322 16.0864 20.701 15.9488C20.9666 15.8944 21.2418 15.8208 21.5234 15.7312V10.8832H19.5522V8.0864H27.7666Z" fill="white"/>
<path d="M100.883 8.88C100.579 7.7504 100.23 6.7392 99.8367 5.8432C99.4591 4.928 99.0015 4.1504 98.4639 3.504C97.9263 2.8576 97.2895 2.3648 96.5567 2.0256C95.8399 1.6864 94.9887 1.5136 94.0031 1.5136C92.5151 1.5136 91.3407 1.9008 90.4799 2.672C89.6223 3.44 89.1903 4.464 89.1903 5.7344C89.1903 6.256 89.2639 6.784 89.4047 7.3216C89.5327 7.8048 89.7375 8.3232 90.0095 8.88H51.6191C51.2063 7.408 50.7839 6.1952 50.3551 5.2512C49.9071 4.2656 49.4335 3.504 48.9311 2.9664C48.4287 2.4288 47.8815 2.0512 47.2895 1.8368C46.6815 1.6224 46.0191 1.5136 45.3023 1.5136C44.7647 1.5136 44.2879 1.552 43.8783 1.6224C43.4463 1.6928 43.0271 1.8208 42.6143 2L43.4463 4.4992C43.6991 4.4096 43.9839 4.3296 44.3071 4.256C44.6111 4.1664 44.9439 4.1216 45.3023 4.1216C45.9103 4.1216 46.4223 4.2848 46.8351 4.6048C47.2447 4.928 47.6127 5.456 47.9359 6.192C48.2431 6.8704 48.5471 7.7664 48.8511 8.88H38.3999V11.4336H49.0719V15.5744H41.0879C40.3711 15.5744 39.8879 15.7344 39.6351 16.0576C39.4047 16.3808 39.2863 16.7648 39.2863 17.2128C39.2863 17.6064 39.4047 18.0288 39.6351 18.4768C39.8879 18.9056 40.1919 19.3088 40.5503 19.6864C40.9279 20.0608 41.3311 20.368 41.7599 20.5984C42.1887 20.832 42.5919 20.9504 42.9695 20.9504C43.4719 20.9504 43.8655 20.8064 44.1535 20.5184C44.4383 20.2336 44.5823 19.7664 44.5823 19.12V18.1536H49.0719V25.6H52.1343V11.4336H55.7567V16.192C55.7567 16.9792 55.8015 17.6512 55.8911 18.208C55.9807 18.7456 56.1247 19.2096 56.3231 19.6064C56.5183 19.9808 56.7711 20.3392 57.0751 20.6816C57.4527 21.056 57.9359 21.3696 58.5279 21.6224C59.1359 21.872 59.8335 21.9968 60.6239 21.9968C61.3055 21.9968 61.9039 21.9424 62.4255 21.8368C62.9439 21.728 63.4367 21.5584 63.9039 21.3248C64.1151 21.2224 64.3295 21.1104 64.5471 20.9856V25.6H67.6127V11.4336H71.7983V25.6H74.8607V11.4336H90.7807V14.1792C90.7359 14.176 90.6911 14.176 90.6463 14.176C89.1231 14.176 87.8239 14.624 86.7487 15.52C86.7231 15.5392 86.6975 15.5616 86.6751 15.584C86.3519 15.344 86.0255 15.1328 85.7023 14.9536C85.2159 14.6848 84.7071 14.4896 84.1695 14.3648C83.6479 14.2208 83.0591 14.1472 82.3935 14.1472C81.8943 14.1472 81.3823 14.2304 80.8639 14.3904C80.3423 14.5344 79.8591 14.7744 79.4111 15.1168C78.9631 15.44 78.6047 15.8688 78.3359 16.4064C78.0671 16.944 77.9327 17.5968 77.9327 18.368C77.9327 19.248 78.1471 20.0896 78.5791 20.896C79.0079 21.6832 79.6351 22.4896 80.4607 23.3152C81.2831 24.1376 82.2783 25.0336 83.4431 26.0032L85.4591 23.9872C84.4191 23.1616 83.5679 22.4544 82.9055 21.8624C82.2591 21.2544 81.7759 20.688 81.4527 20.1696C81.1487 19.6512 80.9983 19.12 80.9983 18.5824C80.9983 18.0448 81.1583 17.616 81.4815 17.2928C81.8207 16.9536 82.3039 16.784 82.9311 16.784C83.6127 16.784 84.2047 16.9792 84.7071 17.3728C84.8351 17.4688 84.9631 17.568 85.0911 17.6736C84.8319 18.2112 84.6143 18.8096 84.4383 19.472L87.3151 20.3584C87.5999 19.3536 87.9327 18.592 88.3071 18.0736C88.6847 17.536 89.0783 17.168 89.4911 16.9696C89.9199 16.7744 90.3327 16.6752 90.7263 16.6752C90.7455 16.6752 90.7615 16.6752 90.7807 16.6784V25.6H93.8463V11.4336H98.0351V25.6H101.097V11.4336H103.734V8.88H100.883ZM64.5471 17.8368C64.4223 17.9616 64.2783 18.096 64.1183 18.2336C63.7407 18.5568 63.3023 18.8448 62.7999 19.0944C62.2975 19.328 61.7599 19.4432 61.1871 19.4432C60.7935 19.4432 60.4607 19.3984 60.1919 19.3088C59.9231 19.2192 59.6991 19.0848 59.5199 18.9056C59.3599 18.7456 59.2255 18.5568 59.1167 18.3424C59.0111 18.1088 58.9311 17.8144 58.8767 17.456C58.8415 17.0784 58.8223 16.576 58.8223 15.9488V11.4336H64.5471V17.8368ZM92.9631 8.88C92.7871 8.5024 92.6335 8.128 92.4959 7.7504C92.3359 7.2864 92.2559 6.7648 92.2559 6.192C92.2559 5.5456 92.4255 5.0368 92.7647 4.6592C93.1071 4.2656 93.6159 4.0672 94.2975 4.0672C94.9087 4.0672 95.4367 4.2464 95.8847 4.6048C96.3327 4.9632 96.7359 5.5008 97.0943 6.2176C97.4527 6.9184 97.7919 7.8048 98.1151 8.88H92.9631Z" fill="black"/>
<path d="M114.44 16.7899V20.1219L114.188 19.8839C114.449 19.5759 114.734 19.3379 115.042 19.1699C115.35 19.0019 115.7 18.9179 116.092 18.9179C116.699 18.9179 117.193 19.1139 117.576 19.5059C117.959 19.8886 118.15 20.4392 118.15 21.1579C118.15 21.5872 118.08 22.0446 117.94 22.5299C117.8 23.0152 117.567 23.4912 117.24 23.9579L116.232 23.3839C116.465 23.0852 116.657 22.7399 116.806 22.3479C116.955 21.9559 117.03 21.5686 117.03 21.1859C117.03 20.7472 116.937 20.4206 116.75 20.2059C116.563 19.9912 116.307 19.8839 115.98 19.8839C115.793 19.8839 115.597 19.9399 115.392 20.0519C115.187 20.1546 114.981 20.3132 114.776 20.5279C114.571 20.7332 114.365 20.9852 114.16 21.2839L114.44 20.4019V24.5039H113.306V21.2979L113.53 21.6199C113.297 21.8252 113.012 22.0166 112.676 22.1939C112.349 22.3712 111.948 22.4599 111.472 22.4599C111.099 22.4599 110.763 22.3946 110.464 22.2639C110.165 22.1239 109.927 21.9512 109.75 21.7459C109.601 21.5686 109.475 21.3772 109.372 21.1719C109.279 20.9666 109.209 20.7332 109.162 20.4719C109.125 20.2106 109.106 19.9026 109.106 19.5479V16.7899H108V15.7959H119.004V16.7899H114.44ZM110.24 16.7899V19.4639C110.24 19.9772 110.268 20.3459 110.324 20.5699C110.38 20.7939 110.483 20.9852 110.632 21.1439C110.735 21.2559 110.856 21.3399 110.996 21.3959C111.136 21.4426 111.295 21.4659 111.472 21.4659C111.78 21.4659 112.055 21.4192 112.298 21.3259C112.541 21.2232 112.765 21.0879 112.97 20.9199C113.185 20.7426 113.381 20.5512 113.558 20.3459L113.306 21.1019V16.7899H110.24ZM121.517 20.3319V21.0879C121.517 21.3492 121.451 21.5452 121.321 21.6759C121.19 21.8066 121.017 21.8719 120.803 21.8719C120.635 21.8719 120.453 21.8159 120.257 21.7039C120.07 21.5919 119.893 21.4426 119.725 21.2559C119.566 21.0692 119.435 20.8732 119.333 20.6679C119.23 20.4532 119.179 20.2479 119.179 20.0519C119.179 19.8372 119.239 19.6646 119.361 19.5339C119.491 19.4032 119.715 19.3379 120.033 19.3379H124.051V20.3319H121.517ZM118.661 15.7959H123.883V16.7899H118.661V15.7959ZM130.189 16.7899H128.117V19.6179H127.347C126.899 19.6179 126.526 19.6552 126.227 19.7299C125.928 19.8046 125.672 19.9119 125.457 20.0519C125.214 20.2199 125.023 20.4252 124.883 20.6679C124.752 20.9106 124.687 21.1859 124.687 21.4939C124.687 21.9419 124.79 22.3152 124.995 22.6139C125.2 22.9032 125.466 23.1179 125.793 23.2579C126.129 23.3979 126.493 23.4679 126.885 23.4679C127.389 23.4679 127.818 23.4119 128.173 23.2999C128.528 23.1786 128.901 23.0152 129.293 22.8099L129.671 23.8459C129.26 24.0326 128.822 24.1912 128.355 24.3219C127.898 24.4432 127.422 24.5039 126.927 24.5039C126.283 24.5039 125.704 24.3826 125.191 24.1399C124.687 23.8972 124.29 23.5472 124.001 23.0899C123.712 22.6326 123.567 22.0772 123.567 21.4239C123.567 20.8172 123.726 20.3086 124.043 19.8979C124.36 19.4779 124.776 19.1606 125.289 18.9459C125.812 18.7312 126.367 18.6239 126.955 18.6239H127.025L126.983 18.6799V16.7899H122.923V15.7959H130.189V16.7899ZM131.756 21.2979C131.522 21.1299 131.303 20.9059 131.098 20.6259C130.902 20.3366 130.804 19.9866 130.804 19.5759C130.804 19.3146 130.85 19.0906 130.944 18.9039C131.037 18.7172 131.163 18.5632 131.322 18.4419C131.462 18.3299 131.616 18.2412 131.784 18.1759C131.952 18.1106 132.138 18.0639 132.344 18.0359C132.558 18.0079 132.792 17.9939 133.044 17.9939H134.892V16.7899H129.838V15.7959H137.482V16.7899H136.026V18.9879H133.058C132.768 18.9879 132.563 19.0019 132.442 19.0299C132.32 19.0579 132.218 19.1046 132.134 19.1699C132.068 19.2259 132.017 19.2959 131.98 19.3799C131.942 19.4546 131.924 19.5432 131.924 19.6459C131.924 19.8699 131.989 20.0659 132.12 20.2339C132.26 20.4019 132.418 20.5466 132.596 20.6679L131.756 21.2979ZM134.332 23.5379C134.668 23.4352 134.943 23.2999 135.158 23.1319C135.372 22.9639 135.48 22.7306 135.48 22.4319C135.48 22.0772 135.344 21.8019 135.074 21.6059C134.803 21.4006 134.364 21.2979 133.758 21.2979C133.114 21.2979 132.619 21.4332 132.274 21.7039C131.938 21.9652 131.77 22.3199 131.77 22.7679C131.77 22.9826 131.798 23.1926 131.854 23.3979C131.91 23.5939 132.017 23.8039 132.176 24.0279C132.334 24.2519 132.563 24.5039 132.862 24.7839C133.17 25.0639 133.571 25.3859 134.066 25.7499L133.31 26.4919C132.74 26.0439 132.255 25.6192 131.854 25.2179C131.462 24.8259 131.163 24.4246 130.958 24.0139C130.752 23.6032 130.65 23.1599 130.65 22.6839C130.65 22.1612 130.799 21.7226 131.098 21.3679C131.406 21.0132 131.798 20.7472 132.274 20.5699C132.759 20.3926 133.272 20.3039 133.814 20.3039C134.458 20.3039 134.98 20.4019 135.382 20.5979C135.792 20.7939 136.091 21.0506 136.278 21.3679C136.474 21.6759 136.572 22.0072 136.572 22.3619C136.572 22.9032 136.413 23.3512 136.096 23.7059C135.778 24.0606 135.316 24.3172 134.71 24.4759L134.332 23.5379ZM141.111 16.7899L141.503 16.5799C141.606 16.7292 141.685 16.9299 141.741 17.1819C141.807 17.4339 141.839 17.7372 141.839 18.0919C141.839 18.6146 141.732 19.0579 141.517 19.4219C141.303 19.7766 141.009 20.0799 140.635 20.3319C140.262 20.5839 139.837 20.8032 139.361 20.9899L139.417 20.8779C139.697 21.2046 140.01 21.5452 140.355 21.8999C140.71 22.2452 141.083 22.5906 141.475 22.9359C141.867 23.2719 142.264 23.5986 142.665 23.9159L141.909 24.6719C141.359 24.2146 140.841 23.7526 140.355 23.2859C139.87 22.8192 139.441 22.3806 139.067 21.9699C138.694 21.5592 138.4 21.2092 138.185 20.9199C137.98 20.6306 137.845 20.4019 137.779 20.2339C137.723 20.0659 137.695 19.9026 137.695 19.7439C137.695 19.6226 137.723 19.5059 137.779 19.3939C137.845 19.2819 137.943 19.1886 138.073 19.1139C138.204 19.0392 138.377 19.0019 138.591 19.0019C138.946 19.0019 139.235 19.1186 139.459 19.3519C139.683 19.5852 139.884 19.9026 140.061 20.3039L139.193 19.8139C139.725 19.6366 140.113 19.3939 140.355 19.0859C140.598 18.7686 140.719 18.3906 140.719 17.9519C140.719 17.6812 140.682 17.4152 140.607 17.1539C140.542 16.8832 140.458 16.6966 140.355 16.5939L140.985 16.7899H137.135V15.7959H148.349V16.7899H141.111ZM142.931 20.8359C142.642 20.5746 142.339 20.3599 142.021 20.1919C141.713 20.0146 141.298 19.9259 140.775 19.9259L140.649 18.9459C141.144 18.9459 141.573 19.0019 141.937 19.1139C142.311 19.2166 142.642 19.3659 142.931 19.5619V20.8359ZM144.107 22.2779C143.734 22.2779 143.398 22.1939 143.099 22.0259C142.81 21.8579 142.577 21.6292 142.399 21.3399C142.231 21.0412 142.147 20.6959 142.147 20.3039C142.147 19.9866 142.222 19.6832 142.371 19.3939C142.53 19.0952 142.763 18.8526 143.071 18.6659C143.389 18.4792 143.79 18.3859 144.275 18.3859C144.845 18.3859 145.344 18.5166 145.773 18.7779C146.212 19.0299 146.599 19.3752 146.935 19.8139C147.271 20.2432 147.57 20.7239 147.831 21.2559L146.949 21.7319C146.669 21.1906 146.389 20.7472 146.109 20.4019C145.829 20.0472 145.545 19.7812 145.255 19.6039C144.966 19.4266 144.649 19.3379 144.303 19.3379C143.902 19.3379 143.608 19.4406 143.421 19.6459C143.235 19.8419 143.141 20.0706 143.141 20.3319C143.141 20.6772 143.239 20.9246 143.435 21.0739C143.631 21.2139 143.865 21.2839 144.135 21.2839C144.275 21.2839 144.411 21.2746 144.541 21.2559C144.681 21.2279 144.831 21.1812 144.989 21.1159L145.325 22.0539C145.092 22.1472 144.873 22.2079 144.667 22.2359C144.462 22.2639 144.275 22.2779 144.107 22.2779Z" fill="#525252"/>
<defs>
<linearGradient id="paint0_linear_221_7983" x1="16" y1="0" x2="16" y2="32" gradientUnits="userSpaceOnUse">
<stop stop-color="#FF4565"/>
<stop offset="1" stop-color="#D11233"/>
</linearGradient>
</defs>
</svg>
