<svg xmlns="http://www.w3.org/2000/svg" width="25" height="24" viewBox="0 0 25 24" fill="none">
                                    <path d="M14.4856 14.7759C14.3491 14.7775 14.2149 14.7409 14.0982 14.6702C13.9815 14.5994 13.8869 14.4975 13.8252 14.3757C13.7328 14.2031 13.7125 14.001 13.7688 13.8134C13.825 13.6259 13.9533 13.4684 14.1254 13.3752C14.5501 13.1472 14.8981 12.7992 15.126 12.3746C15.1713 12.2885 15.233 12.2122 15.3079 12.15C15.3827 12.0878 15.469 12.0409 15.5619 12.0121C15.6548 11.9833 15.7526 11.9731 15.8494 11.9821C15.9463 11.9911 16.0405 12.019 16.1266 12.0644C16.2985 12.1578 16.4271 12.3147 16.485 12.5016C16.543 12.6885 16.5256 12.8907 16.4367 13.065C16.0744 13.7521 15.5129 14.3136 14.8258 14.6759C14.7223 14.7367 14.6055 14.771 14.4856 14.7759Z" fill="#737373" />
                                    <path d="M19.9086 10.6436C19.9039 11.729 19.665 12.8007 19.2083 13.7854C18.742 14.7618 18.0693 15.6254 17.2366 16.3164C16.4039 17.0074 15.4312 17.5093 14.3855 17.7876C14.0088 17.889 13.6238 17.956 13.235 17.9877V20.4991H16.1266C16.3256 20.4991 16.5164 20.5782 16.6572 20.7189C16.7979 20.8597 16.877 21.0505 16.877 21.2496C16.877 21.4486 16.7979 21.6395 16.6572 21.7802C16.5164 21.9209 16.3256 22 16.1266 22H8.84246C8.64343 22 8.4525 21.9209 8.31176 21.7802C8.17103 21.6395 8.09204 21.4486 8.09204 21.2496C8.09204 21.0505 8.17103 20.8597 8.31176 20.7189C8.4525 20.5782 8.64343 20.4991 8.84246 20.4991H11.7341V17.9877C11.5429 17.9743 11.3525 17.9509 11.1637 17.9177C10.9674 17.8819 10.7933 17.7695 10.6798 17.6053C10.5663 17.4411 10.5226 17.2386 10.5584 17.0422C10.5942 16.8458 10.7067 16.6717 10.8708 16.5582C11.035 16.4447 11.2375 16.401 11.4339 16.4369C11.7279 16.4888 12.0258 16.5155 12.3244 16.5169H12.6546C13.1076 16.509 13.558 16.4452 13.9954 16.3268C14.833 16.1048 15.6117 15.7018 16.2766 15.1461C16.9437 14.592 17.4805 13.8977 17.8489 13.1125C18.2172 12.3274 18.408 11.4708 18.4078 10.6036C18.4078 10.4045 18.4869 10.2137 18.6276 10.0729C18.7684 9.93221 18.9592 9.85315 19.1582 9.85315C19.3572 9.85315 19.5482 9.93221 19.6889 10.0729C19.8296 10.2137 19.9086 10.4045 19.9086 10.6036V10.6436Z" fill="#737373" />
                                    <path d="M21.0193 4.56021L16.6569 8.91263L11.0337 14.5358L5.03038 20.5392C4.88745 20.6764 4.69816 20.755 4.50005 20.7593C4.30109 20.7591 4.11044 20.6799 3.96985 20.5392C3.89905 20.4702 3.84277 20.3877 3.80435 20.2967C3.76593 20.2056 3.74609 20.1077 3.74609 20.0089C3.74609 19.91 3.76593 19.8121 3.80435 19.7211C3.84277 19.63 3.89905 19.5475 3.96985 19.4786L7.43175 16.0166L7.2516 15.8165C6.56498 15.1391 6.01962 14.3322 5.64693 13.4425C5.27424 12.5529 5.0817 11.5982 5.08045 10.6336C5.07913 10.5351 5.09721 10.4372 5.13371 10.3456C5.1702 10.2541 5.22434 10.1706 5.2931 10.1C5.36185 10.0294 5.4439 9.973 5.53444 9.93408C5.62499 9.89516 5.72231 9.8745 5.82086 9.8732C6.01908 9.87579 6.20845 9.95568 6.34862 10.0959C6.4888 10.236 6.56869 10.4254 6.57128 10.6236C6.58509 12.1942 7.22214 13.695 8.3423 14.7959L8.48239 14.956L9.33284 14.1156C9.08444 13.8872 8.8659 13.6283 8.68245 13.3451C8.31567 12.781 8.11146 12.1267 8.09216 11.454V5.85092C8.12968 5.29957 8.2774 4.76136 8.5266 4.26812C8.7758 3.77488 9.12137 3.33663 9.54292 2.97931C10.3938 2.34353 11.4275 2 12.4896 2C13.5518 2 14.5854 2.34353 15.4362 2.97931C16.2676 3.68628 16.7856 4.6934 16.8771 5.78087V6.57129L19.9688 3.47959C20.0378 3.40879 20.1202 3.35251 20.2113 3.31409C20.3023 3.27567 20.4003 3.25589 20.4991 3.25589C20.598 3.25589 20.6958 3.27567 20.7869 3.31409C20.878 3.35251 20.9604 3.40879 21.0294 3.47959C21.1013 3.55026 21.1583 3.6347 21.1969 3.7279C21.2355 3.8211 21.255 3.92114 21.2541 4.02201C21.2532 4.12288 21.2319 4.22255 21.1916 4.31502C21.1512 4.40749 21.0926 4.49089 21.0193 4.56021Z" fill="#737373" />
                                </svg>