<svg xmlns="http://www.w3.org/2000/svg" width="20" height="20" viewBox="0 0 20 20" fill="none">
  <path d="M8.98567 15.6897C10.3118 15.6915 11.6085 15.3001 12.712 14.5651C13.8154 13.83 14.676 12.7844 15.1847 11.5605C15.6933 10.3366 15.8274 8.98936 15.5698 7.68927C15.3122 6.38921 14.6744 5.19472 13.7374 4.25695C12.8003 3.31918 11.606 2.68027 10.3055 2.42106C9.00508 2.16186 7.65686 2.294 6.43155 2.80077C5.20623 3.30754 4.15885 4.16616 3.42193 5.26801C2.68502 6.36985 2.29167 7.66539 2.29167 8.99069C2.29167 10.7659 2.99663 12.4684 4.25174 13.7244C5.50684 14.9805 7.20946 15.6874 8.98567 15.6897Z" stroke="#525252" stroke-width="1.5" stroke-linecap="round" stroke-linejoin="round"/>
  <path d="M13.7402 13.7425L17.7083 17.7083" stroke="#525252" stroke-width="1.5" stroke-linecap="round" stroke-linejoin="round"/>
</svg>